<svg width="512" height="512" fill="none" xmlns="http://www.w3.org/2000/svg"><path d="M235.458 353.884c59.326 0 107.591-48.22 107.591-107.49 0-59.27-48.265-107.49-107.591-107.49-59.326 0-107.591 48.22-107.591 107.49 0 59.27 48.265 107.49 107.591 107.49zm-87.022-97.49h24.47c1.302 25.241 7.498 47.714 17.001 64.704-22.496-13.736-38.338-37.32-41.471-64.704zm97.022 74.799v-74.799h32.521c-1.189 20.585-6.046 39.539-13.973 54.173-5.381 9.935-11.832 17.029-18.548 20.626zm0-94.799v-74.799c6.716 3.597 13.167 10.691 18.549 20.626 7.927 14.634 12.783 33.588 13.973 54.173h-32.522zm-20-74.799v74.799h-32.521c1.189-20.585 6.046-39.539 13.973-54.173 5.381-9.935 11.832-17.029 18.548-20.626zm0 94.799v74.799c-6.716-3.597-13.167-10.691-18.549-20.626-7.927-14.634-12.783-33.588-13.973-54.173h32.522zm55.551 64.704c9.503-16.99 15.699-39.463 17.001-64.704h24.47c-3.133 27.384-18.975 50.968-41.471 64.704zm41.471-84.704h-24.47c-1.302-25.241-7.498-47.714-17.001-64.704 22.496 13.736 38.338 37.32 41.471 64.704zM189.907 171.69c-9.503 16.99-15.699 39.463-17.001 64.704h-24.47c3.133-27.384 18.975-50.968 41.471-64.704z" fill="#fff"/><path d="M415.318 80.262h-36.076V10c0-5.523-4.478-10-10-10H155.197c-5.522 0-10 4.477-10 10v38.775h-10.071c-26.712 0-48.444 21.706-48.444 48.386v353.557c0 20.928 17.045 37.954 37.996 37.954h19.466c.356 0 .707-.019 1.054-.055V502c0 5.523 4.478 10 10 10h214.045c5.522 0 10-4.477 10-10v-13.329h36.076c5.522 0 10-4.477 10-10V90.262c-.001-5.523-4.478-10-10.001-10zm-10 20v312.501h-26.076V100.262h26.076zM165.197 20h194.045v28.775H165.197V20zm-30.071 48.775h224.116v343.989H124.678a37.799 37.799 0 00-17.996 4.534V97.161c0-15.652 12.759-28.386 28.444-28.386zm9.018 399.896h-19.466c-9.923 0-17.996-8.054-17.996-17.954s8.073-17.954 17.996-17.954h20.52v35.962a10.49 10.49 0 00-1.054-.054zM359.242 492H165.197v-59.236h194.045V492zm46.076-23.329h-26.076v-35.907h26.076v35.907z" fill="#fff"/></svg>