<svg width="512" height="512" fill="none" xmlns="http://www.w3.org/2000/svg"><path d="M435.845 437.551a57.2 57.2 0 00.829-9.744c0-31.373-25.523-56.897-56.896-56.897-12.317 0-24.146 3.942-33.913 11.206a54.54 54.54 0 00-16.029-2.382c-13.191 0-25.309 4.688-34.773 12.484v-70.544H438.32c5.522 0 10-4.477 10-10V207.533c0-5.523-4.478-10-10-10H295.062v-30.671h132.689a10 10 0 007.77-3.705l42.192-52.07a10 10 0 000-12.591l-42.192-52.07a10.001 10.001 0 00-7.77-3.705H295.062V10c0-5.523-4.478-10-10-10h-59.874c-5.523 0-10 4.477-10 10v32.721H93.226c-5.523 0-10 4.477-10 10v104.141c0 5.523 4.477 10 10 10h121.962v30.671H103.796a10 10 0 00-7.77 3.705l-42.192 52.07a10 10 0 000 12.591l42.192 52.07a10.001 10.001 0 007.77 3.705h111.392v114.251H87.797c-30.735 0-55.74 25.005-55.74 55.74V502c0 5.523 4.477 10 10 10h426.136c5.522 0 10-4.477 10-10v-10.335c0-26.12-18.06-48.102-42.348-54.114zm-106.01-37.818c4.859 0 9.556.98 13.959 2.913a10.002 10.002 0 0010.837-1.84 36.77 36.77 0 0125.146-9.896c20.345 0 36.896 16.552 36.896 36.897 0 2.761-.299 5.474-.892 8.118H295.09a35.227 35.227 0 01-.028-1.418c0-19.174 15.599-34.774 34.773-34.774zM235.188 20h39.874v22.721h-39.874V20zM103.226 62.721h319.758l34.089 42.07-34.089 42.07H103.226v-84.14zm131.962 104.14h39.874v30.671h-39.874v-30.671zM74.474 259.603l34.089-42.07H428.32v84.141H108.564l-34.09-42.071zm160.714 62.07h39.874v114.251h-39.874V321.673zM458.193 492H52.057v-.335c0-19.707 16.033-35.74 35.74-35.74h334.655c19.707 0 35.74 16.033 35.74 35.74V492h.001z" fill="#fff"/></svg>