<svg width="512" height="512" fill="none" xmlns="http://www.w3.org/2000/svg"><g clip-path="url(#clip0)" fill="#fff"><path d="M331.777 0H180.223c-36.287 0-65.808 29.521-65.808 65.809v380.383c0 36.287 29.521 65.809 65.808 65.809h151.554c36.287 0 65.808-29.521 65.808-65.809V65.809C397.585 29.521 368.063 0 331.777 0zM134.415 75.809h243.17v332.553h-243.17V75.809zM180.223 20h151.554c21.825 0 40.135 15.342 44.708 35.809h-240.97C140.088 35.342 158.398 20 180.223 20zm197.362 426.191c0 25.259-20.549 45.809-45.808 45.809H180.223c-25.259 0-45.808-20.55-45.808-45.809v-17.83h243.17v17.83z"/><path d="M244.511 470.182h22.979c5.523 0 10-4.477 10-10s-4.477-10-10-10h-22.979c-5.523 0-10 4.477-10 10s4.477 10 10 10zm-25.66-354.543h74.298c5.523 0 10-4.477 10-10s-4.477-10-10-10h-74.298c-5.523 0-10 4.477-10 10s4.477 10 10 10zm38.957 24.392c-55.941 0-101.453 45.512-101.453 101.453 0 23.229 8.052 45.934 22.674 63.931 13.467 16.576 31.954 28.555 52.432 34.063l17.726 30.155a9.999 9.999 0 0017.242 0l17.727-30.155c20.478-5.507 38.965-17.487 52.432-34.063 14.622-17.998 22.674-40.702 22.674-63.931-.001-55.942-45.513-101.453-101.454-101.453zM275.51 321.01a9.995 9.995 0 00-6.458 4.695l-11.244 19.126-11.243-19.126a9.999 9.999 0 00-6.459-4.695c-36.94-8.181-63.751-41.627-63.751-79.526 0-44.914 36.54-81.453 81.453-81.453 44.914 0 81.453 36.54 81.453 81.453 0 37.899-26.811 71.345-63.751 79.526z"/><path d="M257.808 201.795c-23.153 0-41.99 18.836-41.99 41.99 0 23.154 18.836 41.99 41.99 41.99 23.154 0 41.99-18.836 41.99-41.99 0-23.154-18.837-41.99-41.99-41.99zm0 63.979c-12.125 0-21.99-9.865-21.99-21.99 0-12.125 9.865-21.99 21.99-21.99 12.125 0 21.99 9.865 21.99 21.99 0 12.125-9.865 21.99-21.99 21.99z"/></g><defs><clipPath id="clip0"><path fill="#fff" d="M0 0h512v512H0z"/></clipPath></defs></svg>