<svg width="512" height="512" fill="none" xmlns="http://www.w3.org/2000/svg"><path d="M448.4 0H63.6C36.042 0 13.623 22.42 13.623 49.978v228.474c0 27.558 22.42 49.978 49.978 49.978h152.463v107.496H88.672c-30.735 0-55.74 25.005-55.74 55.74V502c0 5.523 4.477 10 10 10h426.136c5.523 0 10-4.477 10-10v-10.335c0-26.12-18.059-48.101-42.348-54.114.552-3.197.83-6.45.83-9.744 0-31.373-25.524-56.897-56.897-56.897-12.317 0-24.146 3.942-33.912 11.206a54.547 54.547 0 00-16.03-2.382c-13.191 0-25.309 4.688-34.773 12.484V328.43H448.4c27.558 0 49.978-22.42 49.978-49.978V49.978C498.377 22.42 475.958 0 448.4 0zm10.668 491.665V492H52.932v-.335c0-19.707 16.033-35.74 35.74-35.74h334.655c19.708 0 35.741 16.033 35.741 35.74zM330.71 399.733c4.859 0 9.556.98 13.959 2.913a10.001 10.001 0 0010.836-1.84 36.766 36.766 0 0125.146-9.896c20.345 0 36.897 16.552 36.897 36.897 0 2.76-.299 5.474-.893 8.118h-120.69a35.227 35.227 0 01-.028-1.418c0-19.174 15.599-34.774 34.773-34.774zm-54.773 36.192h-39.874V328.429h39.874v107.496zm202.44-157.474c0 16.53-13.448 29.978-29.978 29.978H63.6c-16.53 0-29.978-13.448-29.978-29.978V49.978C33.623 33.448 47.07 20 63.6 20h384.8c16.53 0 29.978 13.448 29.978 29.978v228.473h-.001z" fill="#fff"/><path d="M441.451 84.504c-15.207 0-27.578-12.371-27.578-27.578 0-5.523-4.477-10-10-10H108.126c-5.523 0-10 4.477-10 10 0 15.207-12.37 27.578-27.577 27.578-5.523 0-10 4.477-10 10v139.42c0 5.523 4.477 10 10 10 15.206 0 27.577 12.371 27.577 27.578 0 5.523 4.477 10 10 10h295.747c5.523 0 10-4.477 10-10 0-15.207 12.371-27.578 27.578-27.578 5.523 0 10-4.477 10-10V94.504c0-5.523-4.477-10-10-10zm-10 140.478c-18.223 3.914-32.606 18.298-36.521 36.521H117.069c-3.914-18.223-18.298-32.606-36.52-36.521V103.447c18.222-3.914 32.606-18.298 36.52-36.521H394.93c3.914 18.223 18.298 32.606 36.521 36.521v121.535z" fill="#fff"/><path d="M399.227 183.706h-.057c-2.579.015-5.269.026-7.739.034v-40.808c0-5.523-4.477-10-10-10s-10 4.477-10 10v50.774a9.998 9.998 0 008.312 9.856c.722.124 1.119.192 6.897.192 2.769 0 6.774-.016 12.642-.048 5.523-.031 9.975-4.533 9.944-10.056-.031-5.503-4.502-9.944-9.999-9.944zM147.94 133.803c-5.523 0-10 4.477-10 10v14.538h-15.166v-14.538c0-5.523-4.477-10-10-10s-10 4.477-10 10v50.817c0 5.523 4.477 10 10 10s10-4.477 10-10v-16.28h15.166v16.28c0 5.523 4.477 10 10 10s10-4.477 10-10v-50.817c0-5.523-4.477-10-10-10zm195.751 19.359c5.523 0 10-4.477 10-10s-4.477-10-10-10h-21.217c-5.523 0-10 4.477-10 10v50.354c0 5.523 4.477 10 10 10h21.217c5.523 0 10-4.477 10-10s-4.477-10-10-10h-11.217v-5.177h9.652c5.523 0 10-4.477 10-10s-4.477-10-10-10h-9.652v-5.177h11.217zm-56.823-20.23h-28.064c-5.523 0-10 4.477-10 10s4.477 10 10 10h3.975v40.817c0 5.523 4.477 10 10 10s10-4.477 10-10v-40.817h4.089c5.523 0 10-4.477 10-10s-4.477-10-10-10zm-79.804 2.652c-19.524 0-35.409 15.884-35.409 35.409s15.884 35.409 35.409 35.409 35.409-15.884 35.409-35.409-15.884-35.409-35.409-35.409zm0 50.818c-8.497 0-15.409-6.912-15.409-15.409s6.912-15.409 15.409-15.409 15.409 6.912 15.409 15.409-6.912 15.409-15.409 15.409z" fill="#fff"/></svg>