<svg width="512" height="512" fill="none" xmlns="http://www.w3.org/2000/svg"><path d="M481.15 185.932C481.15 83.409 397.742 0 295.219 0c-40.781 0-78.537 13.197-109.222 35.545C181.029 15.169 162.621 0 140.733 0c-9.712 0-19.053 2.993-26.872 8.525a44.824 44.824 0 00-12.087-1.644c-11.802 0-22.95 4.541-31.392 12.785-6.466 6.315-10.797 14.267-12.595 22.939C41.978 47.598 30.85 62.272 30.85 79.541c0 21.368 17.384 38.752 38.752 38.752h52.418c-8.219 20.972-12.734 43.788-12.734 67.639 0 74.341 43.856 138.631 107.055 168.359l8.404 47.749h-9.292a10.003 10.003 0 00-7.801 3.743 10.004 10.004 0 00-1.961 8.427l20 89.96a10 10 0 009.762 7.83h119.531a10 10 0 009.762-7.83l20-89.96a10 10 0 00-9.762-12.17h-9.292l8.403-47.748c63.199-29.728 107.055-94.019 107.055-168.36zM305.219 350.916V20.948c20.53 3.906 39.841 19.783 55.208 45.684 18.813 31.708 29.173 74.076 29.173 119.3 0 45.224-10.36 87.592-29.173 119.3-15.367 25.9-34.678 41.778-55.208 45.684zm-20-329.968v329.968c-20.53-3.906-39.841-19.783-55.208-45.684-18.813-31.708-29.173-74.076-29.173-119.3 0-45.224 10.36-87.593 29.173-119.3 15.366-25.901 34.678-41.778 55.208-45.684zM461.15 185.932c0 67.974-41.085 126.532-99.726 152.148 5.769-6.637 11.193-14.2 16.202-22.643 20.618-34.75 31.973-80.743 31.973-129.505s-11.354-94.754-31.973-129.505c-5.01-8.444-10.433-16.006-16.202-22.643 58.642 25.615 99.726 84.174 99.726 152.148zM69.602 98.293c-10.34 0-18.752-8.412-18.752-18.752 0-9.728 7.288-17.753 16.952-18.667a10.001 10.001 0 009.055-9.708c.332-13.39 11.511-24.284 24.918-24.284 3.484 0 6.852.702 10.007 2.087a10 10 0 0010.835-1.841A26.484 26.484 0 01140.733 20c14.658 0 26.583 11.922 26.583 26.576a26.88 26.88 0 01-.198 3.264 10.069 10.069 0 00-.071 1.516 187.069 187.069 0 00-35.781 46.937H69.602zm59.684 87.639c0-67.974 41.084-126.532 99.725-152.148-5.769 6.637-11.192 14.199-16.202 22.643-20.617 34.75-31.972 80.743-31.972 129.505s11.354 94.755 31.972 129.505c5.01 8.443 10.433 16.006 16.202 22.643-58.64-25.616-99.725-84.174-99.725-152.148zm108.88 176.979a184.837 184.837 0 0047.053 8.686v30.442h-40.166l-6.887-39.128zM346.964 492h-103.49l-15.553-69.96h134.596L346.964 492zm-1.579-89.96h-40.166v-30.442a184.837 184.837 0 0047.052-8.686l-6.886 39.128z" fill="#fff"/></svg>