<svg width="512" height="512" fill="none" xmlns="http://www.w3.org/2000/svg"><path d="M454.121 308.83h-11.422v-60.802c0-22.704-18.472-41.175-41.175-41.175h-13.8l40.247-76.232c4.192-7.938 5.038-17.032 2.379-25.606-2.661-8.584-8.512-15.618-16.477-19.805L259.104 3.864c-16.413-8.628-36.807-2.317-45.459 14.066l-99.746 188.923H89.051c-22.704 0-41.174 18.471-41.174 41.175v222.797c0 22.703 18.47 41.175 41.174 41.175h312.474c22.703 0 41.175-18.472 41.175-41.175v-60.802h11.422c5.523 0 10-4.478 10-10.001V318.83c-.001-5.523-4.478-10-10.001-10zM231.332 27.268c3.511-6.65 11.795-9.207 18.467-5.7l154.771 81.346a13.531 13.531 0 016.678 8.021 13.473 13.473 0 01-.962 10.348l-45.178 85.57h-26.843l25.516-48.329a9.996 9.996 0 00.708-7.63 10.008 10.008 0 00-4.899-5.892c-6.551-3.443-11.364-9.225-13.55-16.279-2.181-7.037-1.487-14.502 1.954-21.02a10.003 10.003 0 00-4.191-13.522l-52.484-27.584c-4.881-2.565-10.92-.696-13.496 4.183-7.121 13.486-23.917 18.674-37.44 11.568-4.881-2.565-10.92-.695-13.496 4.183L163.36 206.852h-26.844l94.816-179.584zm95.603 107.376c2.763 8.912 7.954 16.647 14.97 22.477l-26.257 49.732H185.977l54.426-103.084c18.012 5.047 37.52-.981 49.513-15.314l36.642 19.26c-2.476 8.75-2.379 18.037.377 26.929zm95.764 336.181c0 11.676-9.499 21.174-21.174 21.174H89.051c-11.675 0-21.174-9.498-21.174-21.174V248.028c0-11.677 9.499-21.175 21.174-21.175h312.474c11.675 0 21.174 9.498 21.174 21.175v60.802h-39.046c-27.899 0-50.597 22.697-50.597 50.597 0 27.899 22.697 50.597 50.597 50.597h39.046v60.801zm21.422-80.803h-60.469c-16.872 0-30.597-13.726-30.597-30.596 0-16.871 13.725-30.597 30.597-30.597h60.469v61.193z" fill="#fff"/></svg>