<svg width="44" height="44" fill="none" xmlns="http://www.w3.org/2000/svg"><path d="M43 22c0 11.598-9.402 21-21 21S1 33.598 1 22 10.402 1 22 1s21 9.402 21 21z" stroke="#fff" stroke-width="2"/><path fill-rule="evenodd" clip-rule="evenodd" d="M22 12.982c2.937 0 3.285.011 4.445.064 1.072.05 1.655.228 2.043.379.513.2.88.438 1.264.823.385.385.624.751.823 1.264.15.388.33.97.379 2.043.053 1.16.064 1.508.064 4.445 0 2.937-.011 3.285-.064 4.445-.05 1.072-.228 1.655-.379 2.043-.2.513-.438.88-.823 1.264a3.408 3.408 0 01-1.264.823c-.388.15-.97.33-2.043.379-1.16.053-1.508.064-4.445.064-2.937 0-3.285-.011-4.445-.064-1.072-.049-1.655-.228-2.043-.379-.513-.2-.88-.438-1.264-.823a3.408 3.408 0 01-.823-1.264c-.15-.388-.33-.97-.379-2.043-.053-1.16-.064-1.508-.064-4.445 0-2.937.011-3.285.064-4.445.049-1.072.228-1.655.379-2.043.2-.513.438-.88.823-1.264a3.408 3.408 0 011.264-.823c.388-.15.97-.33 2.043-.379 1.16-.053 1.508-.064 4.445-.064M22 11c-2.988 0-3.362.013-4.535.066-1.171.054-1.97.24-2.67.511a5.391 5.391 0 00-1.949 1.27 5.391 5.391 0 00-1.268 1.948c-.272.7-.458 1.499-.512 2.67C11.013 18.638 11 19.013 11 22c0 2.988.013 3.362.066 4.535.054 1.171.24 1.97.511 2.67a5.392 5.392 0 001.27 1.949 5.392 5.392 0 001.947 1.268c.7.273 1.5.458 2.67.512 1.174.053 1.549.066 4.536.066 2.987 0 3.362-.013 4.535-.066 1.171-.054 1.97-.24 2.67-.511a5.391 5.391 0 001.949-1.27 5.391 5.391 0 001.268-1.947c.272-.7.458-1.5.512-2.67.053-1.174.066-1.549.066-4.536 0-2.987-.013-3.362-.066-4.535-.054-1.171-.24-1.97-.511-2.67a5.39 5.39 0 00-1.27-1.949 5.39 5.39 0 00-1.948-1.268c-.7-.272-1.499-.458-2.67-.512C25.362 11.013 24.987 11 22 11m.022 5.369a5.653 5.653 0 100 11.306 5.653 5.653 0 000-11.306zm0 9.322a3.67 3.67 0 110-7.339 3.67 3.67 0 010 7.34zm7.137-9.584a1.31 1.31 0 11-2.62 0 1.31 1.31 0 012.62 0" fill="#fff"/></svg>