<svg width="18" height="18" fill="none" xmlns="http://www.w3.org/2000/svg"><path d="M5.742 5.682c-1.073.912-1.466 2.575-.54 3.909a12.817 12.817 0 003.208 3.207c1.334.926 2.997.533 3.909-.54l.01.005A13.38 13.38 0 0016 13.36V16h-.004C8.022 16.011 1.991 9.911 2 2.004V2h2.64v.001c.188 1.27.558 2.506 1.097 3.67l.005.01zM16 18h1a1 1 0 001-1v-4.502a1 1 0 00-.853-.99l-.854-.126a11.416 11.416 0 01-3.123-.934l-.753-.349a1 1 0 00-1.234.326l-.341.477c-.299.419-.87.546-1.291.253A10.816 10.816 0 016.845 8.45c-.293-.422-.165-.993.253-1.291l.477-.34A1 1 0 007.9 5.583l-.35-.754a11.424 11.424 0 01-.933-3.123L6.49.853A1 1 0 005.501 0H1a1 1 0 00-1 1v1.001C-.01 11.008 6.91 18.013 15.999 18z" fill="#fff"/></svg>