<svg width="44" height="44" fill="none" xmlns="http://www.w3.org/2000/svg"><path d="M43 22c0 11.598-9.402 21-21 21S1 33.598 1 22 10.402 1 22 1s21 9.402 21 21z" stroke="#fff" stroke-width="2"/><path fill-rule="evenodd" clip-rule="evenodd" d="M30.526 16.846a4.51 4.51 0 001.893-2.513 8.355 8.355 0 01-2.736 1.102A4.194 4.194 0 0026.539 14c-2.38 0-4.307 2.035-4.307 4.544 0 .356.036.703.11 1.034-3.58-.19-6.754-1.997-8.88-4.747a4.724 4.724 0 00-.583 2.285c0 1.576.76 2.967 1.917 3.783a4.154 4.154 0 01-1.953-.568v.056c0 2.202 1.484 4.04 3.458 4.455a4 4 0 01-1.137.16c-.277 0-.548-.027-.81-.08.548 1.804 2.139 3.12 4.025 3.155-1.476 1.219-3.333 1.944-5.351 1.944-.348 0-.692-.02-1.028-.062A11.748 11.748 0 0018.604 32c7.926 0 12.257-6.924 12.257-12.929 0-.197-.002-.394-.01-.587A9.005 9.005 0 0033 16.13a8.257 8.257 0 01-2.474.715z" fill="#fff"/></svg>