<svg width="512" height="512" fill="none" xmlns="http://www.w3.org/2000/svg"><g clip-path="url(#clip0)" fill="#fff"><path d="M317.374 272.363l-98.594-67.014a10.022 10.022 0 00-2.315-1.167c-17.552-6.149-37.229-4.113-56.908 5.885a28.898 28.898 0 00-15.506 21.627 28.83 28.83 0 008.76 25.058c22.956 21.628 20.359 38.076 18.464 50.086-1.226 7.766-3.277 20.763 10.116 25.525 6.879 2.446 14.616 1.611 21.441.874 2.927-.315 7.566-.816 9.79-.528l21.094 64.684c.068.209.143.415.225.619 4.017 10.024 13.698 16.212 23.976 16.212 2.701 0 5.442-.428 8.133-1.324a25.825 25.825 0 0013.78-10.9c31.4-45.595 31.4-49.636 31.4-52.884v-20.707c0-1.313.45-2.598 1.272-3.623l11.479-14.351a25.795 25.795 0 00-6.607-38.072zm-9.014 25.579l-11.474 14.344a25.875 25.875 0 00-5.658 16.122v19.069c-2.818 5.777-16.311 26.396-28.026 43.402-.118.172-.231.348-.339.526a5.81 5.81 0 01-3.14 2.52 5.808 5.808 0 01-7.121-3.124l-21.314-65.357c-4.849-14.872-20.972-13.134-30.604-12.091-3.375.364-7.377.793-10.238.589.152-1.259.387-2.747.583-3.986 2.145-13.592 6.138-38.891-24.504-67.761-2.115-1.992-3.091-4.782-2.678-7.655.416-2.893 2.154-5.313 4.769-6.643 14.44-7.335 27.912-9.093 40.061-5.232l97.661 66.38c.157.106.317.209.479.307 1.962 1.176 2.547 2.975 2.722 3.941.173.968.252 2.86-1.179 4.649z"/><path d="M507.335 210.368l-54.858-34.605V130.44c0-20.449-16.636-37.085-37.084-37.085-13.399 0-25.161 7.143-31.679 17.821-17.917-20.307-39.59-37.319-63.557-49.777-30.945-16.086-65.859-24.588-100.968-24.588-16.958 0-33.846 1.943-50.196 5.775l-.036.009c-42.768 10.026-81.187 32.511-111.104 65.03-30.086 32.7-49.317 73.134-55.613 116.93l-.004.024A221.973 221.973 0 000 256c0 30.413 6.112 59.855 18.167 87.509 11.643 26.708 28.26 50.516 49.389 70.762l.005.005c40.979 39.281 94.827 60.913 151.627 60.913 74.407 0 142.955-37.162 183.644-99.48h57.701c5.523 0 10-4.478 10-10v-23.575a9.999 9.999 0 00-3.246-7.374l-14.811-13.565v-68.642l47.037 12.073a10 10 0 0012.486-9.686v-36.113a9.997 9.997 0 00-4.664-8.459zm-129.027-74.217v39.611l-31.381 19.796c-25.457-8.329-48.208-22.637-66.017-41.563-22.133-23.519-49.761-29.165-71.192-29.165a127.928 127.928 0 00-26.379 2.781c-7.122 1.52-12.176-.245-15.453-5.403-4.878-7.681-5.056-22.432 4.217-34.65 1.513-1.977 1.824-3.812 2.074-5.289 1.281-7.554 2.922-14.733 4.895-21.418a200.595 200.595 0 0140.117-4.039c62.341-.001 121.579 29.601 159.119 79.339zM20 256c0-6.585.325-13.197.967-19.748a30.03 30.03 0 0118.541 11.013l14.387 18.183a50.017 50.017 0 0023.872 16.586c13.633 4.42 22.325 17.958 20.667 32.191l-.284 2.43c-1.114 9.54-4.979 18.435-11.182 25.726a68.587 68.587 0 00-14.512 28.896l-3.565 15.471C37.24 350.528 20 304.74 20 256zm199.189 199.189c-49.737 0-96.983-18.253-133.673-51.517l6.431-27.906a48.502 48.502 0 0110.259-20.431c8.77-10.308 14.237-22.882 15.811-36.362l.284-2.432v-.002c2.757-23.669-11.695-46.182-34.364-53.531a30.065 30.065 0 01-14.356-9.971l-14.386-18.182c-7.889-9.972-19.052-16.421-31.265-18.392 14.124-69.76 65.58-127.454 132.943-149.704a216.225 216.225 0 00-2.166 10.731c-11.828 17.14-13.464 40.071-3.704 55.44 7.72 12.156 21.373 17.479 36.551 14.23 14.884-3.18 52.356-7.551 78.791 20.541 16.527 17.562 36.786 31.59 59.381 41.23l-2.276 1.436a10.003 10.003 0 00-4.665 8.458v36.113a9.998 9.998 0 0012.486 9.686l47.037-12.073v68.642l-14.811 13.565a9.999 9.999 0 00-3.246 7.374v23.575c0 5.522 4.477 10 10 10h8.171c-37.58 50.026-96.087 79.482-159.233 79.482zM492 242.048l-47.037-12.073a10 10 0 00-12.486 9.686v85.934a9.999 9.999 0 003.246 7.374l14.811 13.565v9.174h-70.282v-9.174l14.811-13.565a9.999 9.999 0 003.246-7.374v-85.934a9.998 9.998 0 00-12.487-9.686l-47.036 12.073v-17.707l54.858-34.605a10.003 10.003 0 004.665-8.458V130.44c0-9.421 7.664-17.085 17.085-17.085 9.42 0 17.084 7.664 17.084 17.085v50.838a10 10 0 004.665 8.458L492 224.341v17.707z"/></g><defs><clipPath id="clip0"><path fill="#fff" d="M0 0h512v512H0z"/></clipPath></defs></svg>