<svg width="512" height="520" fill="none" xmlns="http://www.w3.org/2000/svg"><g filter="url(#filter0_d)" fill="#fff"><path d="M306.673 226.937l-77.315 24.46a9.999 9.999 0 00-6.517 6.515l-24.475 77.27a9.998 9.998 0 009.534 13.02c1.008 0 2.024-.153 3.016-.466l77.315-24.46a9.999 9.999 0 006.517-6.515l24.475-77.27a9.998 9.998 0 00-2.461-10.089 9.998 9.998 0 00-10.089-2.465zm-29.424 78.835l-54 17.084 17.091-53.957 54-17.083-17.091 53.956z"/><path d="M414.522 128.483c-32.547-32.622-73.341-53.977-117.67-62.112 3.299-6.193 4.998-13.073 4.998-20.438C301.851 20.605 281.282 0 256 0s-45.851 20.605-45.851 45.933c0 7.365 1.699 14.245 4.998 20.438-44.329 8.135-85.123 29.49-117.67 62.112-42.335 42.433-65.65 98.848-65.65 158.853 0 60.006 23.315 116.421 65.65 158.854C139.819 488.628 196.117 512 256 512c59.883 0 116.181-23.372 158.522-65.811 42.335-42.433 65.65-98.848 65.65-158.854.001-60.004-23.315-116.419-65.65-158.852zm-184.373-82.55C230.149 31.633 241.746 20 256 20s25.851 11.633 25.851 25.933c0 6.742-2.557 12.607-7.606 17.468a228.269 228.269 0 00-36.488 0c-5.051-4.861-7.608-10.726-7.608-17.468zM256 492c-112.581 0-204.173-91.812-204.173-204.664 0-112.852 91.592-204.664 204.173-204.664s204.173 91.812 204.173 204.664C460.173 400.188 368.581 492 256 492z"/><path d="M256 109.918c-97.617 0-177.035 79.589-177.035 177.418 0 97.829 79.418 177.418 177.035 177.418 97.617 0 177.035-79.589 177.035-177.418 0-97.829-79.418-177.418-177.035-177.418zm0 334.836c-86.59 0-157.035-70.618-157.035-157.418 0-86.8 70.445-157.418 157.035-157.418s157.035 70.618 157.035 157.418c0 86.8-70.445 157.418-157.035 157.418z"/><path d="M256 179.758c5.522 0 10-4.477 10-10v-15.512c0-5.523-4.478-10-10-10s-10 4.477-10 10v15.512c0 5.523 4.478 10 10 10zm0 209.571c-5.522 0-10 4.477-10 10v15.512c0 5.523 4.478 10 10 10s10-4.477 10-10v-15.512c0-5.523-4.478-10-10-10zm130.373-114.786h-15.521c-5.522 0-10 4.477-10 10s4.478 10 10 10h15.521c5.522 0 10-4.477 10-10s-4.477-10-10-10zm-245.226 0h-15.521c-5.522 0-10 4.477-10 10s4.478 10 10 10h15.521c5.522 0 10-4.477 10-10s-4.477-10-10-10zm199.971-89.207l-10.975 10.968c-3.906 3.904-3.908 10.236-.004 14.142a9.969 9.969 0 007.073 2.931 9.97 9.97 0 007.069-2.927l10.975-10.968c3.906-3.904 3.908-10.236.004-14.142-3.904-3.906-10.236-3.908-14.142-.004zm-173.4 173.3l-10.975 10.968c-3.906 3.904-3.908 10.236-.004 14.142a9.969 9.969 0 007.073 2.931 9.97 9.97 0 007.069-2.927l10.975-10.968c3.906-3.904 3.908-10.236.004-14.142-3.905-3.906-10.237-3.91-14.142-.004zm176.564 0c-3.907-3.903-10.237-3.902-14.143.004-3.904 3.906-3.902 10.238.004 14.142l10.975 10.968a9.971 9.971 0 007.069 2.927c2.561 0 5.12-.977 7.073-2.931 3.904-3.906 3.902-10.238-.004-14.142l-10.974-10.968zm-173.4-173.3c-3.907-3.904-10.237-3.902-14.143.004-3.904 3.906-3.902 10.238.004 14.142l10.975 10.968a9.971 9.971 0 007.069 2.927c2.561 0 5.12-.977 7.073-2.931 3.904-3.906 3.902-10.238-.004-14.142l-10.974-10.968z"/></g><defs><filter id="filter0_d" x="-4" y="0" width="520" height="520" filterUnits="userSpaceOnUse" color-interpolation-filters="sRGB"><feFlood flood-opacity="0" result="BackgroundImageFix"/><feColorMatrix in="SourceAlpha" values="0 0 0 0 0 0 0 0 0 0 0 0 0 0 0 0 0 0 127 0"/><feOffset dy="4"/><feGaussianBlur stdDeviation="2"/><feColorMatrix values="0 0 0 0 0 0 0 0 0 0 0 0 0 0 0 0 0 0 0.25 0"/><feBlend in2="BackgroundImageFix" result="effect1_dropShadow"/><feBlend in="SourceGraphic" in2="effect1_dropShadow" result="shape"/></filter></defs></svg>