<svg width="512" height="512" fill="none" xmlns="http://www.w3.org/2000/svg"><path d="M341.801 330.649l-85.399-58.046a10.009 10.009 0 00-2.316-1.167c-15.559-5.45-32.97-3.662-50.352 5.168a26.376 26.376 0 00-14.152 19.739 26.314 26.314 0 007.996 22.873c19.375 18.255 17.279 31.54 15.594 42.215-1.052 6.67-3.012 19.084 9.637 23.583 6.249 2.223 13.113 1.48 19.169.827 2.26-.244 5.431-.578 7.346-.521l17.998 55.191c.068.209.143.415.225.619 3.689 9.205 12.577 14.886 22.015 14.886a23.6 23.6 0 007.468-1.216 23.719 23.719 0 0012.635-9.98c27.425-39.824 27.422-43.242 27.422-46.551v-17.94c0-.835.285-1.651.81-2.306l9.946-12.434a23.688 23.688 0 00-6.042-34.94zm-9.578 22.45l-9.938 12.425a23.753 23.753 0 00-5.198 14.806v16.205c-2.666 5.271-14.131 22.769-24.046 37.163a9.997 9.997 0 00-.338.526 3.705 3.705 0 01-1.999 1.604 3.696 3.696 0 01-4.501-1.929l-18.442-56.553c-1.219-3.739-4.725-10.231-14.501-11.705-4.38-.66-8.979-.165-13.428.316-2.234.241-4.988.539-7.205.551.099-.669.206-1.351.302-1.958 1.897-12.02 5.428-34.393-21.635-59.89-2.146-2.022-2.053-4.499-1.914-5.471.141-.979.755-3.403 3.414-4.754 12.114-6.154 23.38-7.668 33.517-4.51l84.453 57.402c.157.106.316.208.479.306a3.642 3.642 0 011.731 2.507 3.67 3.67 0 01-.751 2.959z" fill="#fff"/><path d="M448.901 296.668c-5.154-47.236-27.503-90.857-62.93-122.828-33.211-29.971-75.485-47.412-119.971-49.691V82.625h87.896c3.016 0 5.871-1.361 7.77-3.704l25.372-31.313a10.001 10.001 0 000-12.592L361.666 3.704A10 10 0 00353.896 0H152.731c-5.523 0-10 4.478-10 10v62.625c0 5.522 4.477 10 10 10H246v41.522a194.297 194.297 0 00-34.438 4.858c-37.878 8.872-71.904 28.783-98.397 57.579-26.641 28.956-43.667 64.761-49.239 103.545a196.587 196.587 0 00-1.979 27.817c0 53.402 21.241 103.164 59.808 140.118C158.035 492.846 205.711 512 256 512c107.001 0 194.054-87.052 194.054-194.054 0-7.126-.388-14.286-1.153-21.278zM162.731 20h186.397l17.27 21.313-17.27 21.313H162.731V20zm264.918 268.905c-.723.102-1.466.204-2.236.308-2.915.391-5.683-1.569-6.436-4.545-1.924-7.655-9.36-11.058-36.164-16.547-28.285-5.805-53.306-19.575-72.359-39.823-29.411-31.254-69.773-26.676-85.79-23.251-5.56 1.191-9.479-.147-11.981-4.091-4.041-6.362-3.801-18.756 3.589-28.495 1.51-1.976 1.823-3.818 2.052-5.168 1.222-7.213 2.827-14.027 4.779-20.298A175.504 175.504 0 01256 143.893c85.631 0 157.729 61.665 171.649 145.012zM81.946 317.946c0-5.447.254-10.914.757-16.336a24.687 24.687 0 0116.577 9.243l12.465 15.753a44.68 44.68 0 0021.318 14.813c11.208 3.634 18.355 14.765 16.992 26.466l-.246 2.105a40.41 40.41 0 01-9.38 21.579 60.776 60.776 0 00-12.857 25.601l-3.345 14.516c-27.377-31.568-42.281-71.377-42.281-113.74zM256 492c-42.703 0-83.303-15.398-115.12-43.509l6.183-26.83a40.679 40.679 0 018.605-17.137c7.77-9.133 12.614-20.272 14.008-32.217l.246-2.107c2.462-21.138-10.445-41.242-30.689-47.806a24.744 24.744 0 01-11.804-8.198l-12.463-15.751c-7.332-9.27-17.833-15.13-29.26-16.622 12.741-60.002 57.12-109.556 115.124-129a188.365 188.365 0 00-1.957 9.589c-10.388 15.25-11.76 35.586-3.071 49.267 7 11.022 19.354 15.852 33.075 12.921 12.674-2.713 44.575-6.439 67.014 17.404 21.892 23.266 50.56 39.071 82.907 45.71 13.494 2.763 19.508 4.647 22.048 5.615 4.045 9.623 13.443 15.935 23.813 15.935 1.128 0 2.27-.075 3.417-.229.594-.08 1.174-.16 1.743-.239.157 3.043.237 6.099.237 9.15C430.054 413.92 351.974 492 256 492z" fill="#fff"/></svg>