<svg width="512" height="512" fill="none" xmlns="http://www.w3.org/2000/svg"><g clip-path="url(#clip0)" fill="#fff"><path d="M215.069 188.842c20.375 0 36.952-16.576 36.952-36.951s-16.577-36.952-36.952-36.952c-20.375 0-36.951 16.577-36.951 36.952 0 20.375 16.576 36.951 36.951 36.951zm0-53.904c9.348 0 16.952 7.604 16.952 16.952 0 9.347-7.604 16.951-16.952 16.951-9.347 0-16.951-7.604-16.951-16.951 0-9.347 7.605-16.952 16.951-16.952z"/><path d="M256 0C141.743 0 48.79 92.74 48.79 206.733c0 47.339 16.447 93.606 46.312 130.278 28.501 34.996 68.006 59.938 111.623 70.57l15.397 26.129c-34.497 5.755-56.033 19.952-56.033 37.793C166.09 498.09 211.32 512 256 512s89.91-13.91 89.91-40.496c0-17.838-21.537-32.037-56.033-37.792l15.397-26.129c43.617-10.633 83.122-35.574 111.623-70.57 29.865-36.672 46.313-82.939 46.313-130.278C463.211 92.74 370.257 0 256 0zm69.91 471.504c0 5.948-24.498 20.496-69.91 20.496-45.412 0-69.91-14.548-69.91-20.496 0-4.967 16.121-15.427 47.015-19.156l14.28 24.233a9.999 9.999 0 0017.23 0l14.28-24.233c30.894 3.73 47.015 14.191 47.015 19.156zm-29.232-82.456a10.001 10.001 0 00-6.458 4.688L256 451.807l-34.22-58.071a10.001 10.001 0 00-6.458-4.688c-84.907-18.76-146.533-95.434-146.533-182.314C68.79 103.769 152.771 20 256 20c103.229 0 187.211 83.769 187.211 186.733 0 86.881-61.626 163.555-146.533 182.315z"/><path d="M404.368 193.086C395.98 117.625 332.196 60.721 256 60.721c-82.318 0-149.29 66.823-149.29 148.96 0 37.272 13.866 72.94 39.042 100.43 19.675 21.504 44.932 36.67 73.031 43.856 12.082 3.103 24.604 4.675 37.217 4.675s25.135-1.572 37.21-4.673c65.991-16.89 112.08-76.224 112.08-144.288 0-5.553-.311-11.14-.922-16.595zM256 80.721c62.193 0 114.836 43.75 126.768 103.47H358.93c-37.159 0-71.356 17.307-93.295 46.755-11.707-6.17-24.715-9.395-38.135-9.395h-2.38c-21.872 0-42.43 8.441-57.886 23.77-9.573 9.493-16.499 20.947-20.406 33.469-13.082-20.52-20.119-44.408-20.119-69.109.001-71.109 58-128.96 129.291-128.96zm32.244 253.875c-20.918 5.369-43.562 5.372-64.497-.003-23.046-5.893-43.883-17.99-60.504-35.083 1.94-32.271 28.982-57.958 61.877-57.958h2.38c12.714 0 24.935 3.825 35.341 11.061a10.002 10.002 0 0014.196-2.921c17.756-28.49 48.37-45.5 81.894-45.5h26.244c.077 1.829.116 3.661.116 5.49-.001 58.923-39.905 110.288-97.047 124.914z"/></g><defs><clipPath id="clip0"><path fill="#fff" d="M0 0h512v512H0z"/></clipPath></defs></svg>